<svg width="1760" height="457" viewBox="0 0 1760 457" fill="none" xmlns="http://www.w3.org/2000/svg">
<path d="M261.372 219.064C269.275 219.502 277.134 218.319 285.124 220.749C291.867 222.785 297.887 217.969 302.769 213.81C316.583 202.054 331.184 202.776 346.618 209.563C352.945 212.343 359.315 215.036 365.795 217.422C372.954 220.049 380.331 223.398 385.958 214.445C387.205 212.474 389.745 212.321 391.934 212.606C414.286 215.561 436.593 218.713 457.566 227.711C457.894 227.842 458.397 228.127 458.376 228.324C458.376 228.827 458.091 229.331 457.938 229.834C390.292 229.834 322.669 229.834 254.301 229.834C256.03 235.264 258.788 237.059 261.459 238.876C263.977 245.246 266.976 251.485 268.881 258.031C271.683 267.707 276.849 273.246 287.62 271.604C291.123 271.078 293.925 272.545 296.245 275.172C311.766 292.905 326.806 310.965 336.176 332.945C316.67 317.752 301.04 298.553 283.045 281.805C279.673 278.675 277.112 274.253 271.661 274.209L271.88 274.384C271.092 273.552 270.282 272.72 269.494 271.91C269.494 271.91 269.734 272.195 269.734 272.173C260.08 258.359 246.354 248.552 234.313 236.643C236.109 244.677 237.904 252.711 239.721 260.767C240.268 268.67 240.925 276.311 238.473 284.323C236.459 290.891 241.297 296.955 245.456 301.88C257.037 315.606 256.621 330.164 249.878 345.598C246.704 352.888 243.705 360.287 240.925 367.731C238.714 373.685 237.247 379.662 243.924 384.193C247.602 386.689 246.573 390.607 246.201 394.176C243.946 415.148 239.808 435.683 232.212 455.407C229.629 450.635 230.461 445.446 230.461 440.389C230.417 381.391 230.461 322.393 230.329 263.395C230.329 259.739 232.037 255.535 228.162 251.945C225.272 254.988 222.558 257.856 219.821 260.702C214.129 263.022 208.547 265.737 202.702 267.576C192.763 270.706 185.451 275.282 187.662 287.519C188.209 290.496 186.721 293.124 184.378 295.203C166.427 311.097 148.016 326.333 125.555 335.681C123.432 333.974 124.526 332.879 125.774 330.624L125.73 330.69C129.277 330.274 131.444 327.734 133.743 325.458C161.458 297.808 189.151 270.137 216.844 242.444C219.142 240.145 221.638 237.934 221.945 234.366C222.47 234.103 222.974 233.819 223.499 233.556C222.974 233.819 222.448 234.081 221.923 234.344C213.998 235.855 206.073 237.365 198.148 238.876C190.574 239.576 183.152 240.342 175.556 237.847C169.01 235.701 163.275 239.708 158.721 243.626C143.682 256.564 127.876 255.951 111.085 247.917C105.196 245.115 99.0224 242.904 92.9146 240.627C86.2596 238.131 79.6483 236.052 74.5037 243.67C72.9056 246.034 70.1253 245.947 67.5202 245.597C45.2344 242.729 22.9048 240.08 2.30469 230.141C8.47816 229.966 14.6297 229.659 20.7813 229.659C78.8382 229.616 136.873 229.659 194.93 229.55C198.302 229.55 203.359 231.367 204.584 227.229C205.635 223.683 201.104 221.428 198.389 219.129C194.668 209.628 190.946 200.127 187.224 190.626C193.332 191.152 196.178 196.253 199.987 199.887C207.824 207.395 215.443 215.167 223.127 222.829L225.316 221.165C223.565 213.219 221.813 205.272 220.062 197.347C219.821 189.794 219.077 182.373 221.551 174.777C223.63 168.384 219.449 162.539 215.487 158.008C201.957 142.552 203.862 126.352 211.743 109.386C214.633 103.169 217.194 96.7545 219.449 90.2526C221.485 84.3638 223.127 78.2779 215.815 74.1841C213.407 72.8268 213.057 70.0904 213.385 67.4196C216.121 45.09 219.865 23.0012 228.446 2.007C228.578 1.67863 228.665 1.26268 228.906 1.04377C230.548 -0.444873 230.439 1.30647 230.833 2.11646C230.833 69.6744 230.833 137.232 230.833 205.447C235.539 203.521 237.422 200.456 239.502 197.588C247.93 194.457 256.424 191.458 264.809 188.153C270.019 186.095 273.149 182.154 272.252 176.309C271.113 168.91 274.529 164.115 279.848 159.606C294.494 147.171 309.621 135.415 326.719 126.505C329.28 125.17 331.819 120.967 335.563 124.842C335.563 126.002 335.782 127.096 333.505 129.351L333.549 129.286C328.273 129.789 325.624 134.102 322.362 137.342C299.244 160.328 276.083 183.293 253.25 206.607C248.762 211.183 239.173 215.452 242.435 221.647C244.427 225.434 254.935 221.253 261.372 219.064Z" fill="white"/>
<path d="M198.389 219.151C201.104 221.45 205.635 223.705 204.585 227.251C203.359 231.389 198.302 229.572 194.93 229.572C136.873 229.681 78.8384 229.637 20.7814 229.681C14.6298 229.681 8.45637 229.988 2.30478 230.163C-1.70141 227.623 2.63316 227.667 3.37748 227.361C23.7806 219.217 45.2783 215.846 66.8636 212.868C69.3811 212.518 72.3584 212.212 73.9127 214.598C79.5827 223.289 86.8726 220.465 94.1188 217.706C102.591 214.488 110.91 210.898 119.404 207.724C131.729 203.127 144.273 202.645 154.102 212.321C167.631 225.587 183.525 217.728 198.389 219.151Z" fill="#E8E8E8"/>
<path d="M219.821 260.702C222.536 257.834 225.272 254.988 228.162 251.945C232.037 255.536 230.329 259.739 230.329 263.395C230.461 322.393 230.395 381.391 230.461 440.39C230.461 445.425 229.629 450.635 232.212 455.407C228.687 456.852 228.534 456.918 227.615 454.422C221.573 438.31 217.741 421.65 215.508 404.64C214.392 396.037 209.992 386.689 220.412 379.968C222.952 378.326 221.069 374.561 220.478 371.715C218.42 361.601 213.297 352.669 209.576 343.19C203.993 328.982 203.249 315.059 214.304 303.281C226.695 290.081 218.114 274.888 219.843 260.702H219.821Z" fill="#E8E8E8"/>
<path d="M239.502 197.588C237.422 200.456 235.54 203.521 230.833 205.447C230.833 137.233 230.833 69.6746 230.833 2.1167C240.75 22.8044 243.574 45.1778 246.201 67.573C246.398 69.2587 246.201 71.8638 245.106 72.6738C234.598 80.5767 240.203 89.4867 243.289 98.1558C245.128 103.3 247.405 108.292 249.638 113.261C256.402 128.388 256.731 142.662 245.435 156.191C239.13 163.722 235.934 172.04 239.874 182.461C241.538 186.817 239.721 192.487 239.48 197.566L239.502 197.588Z" fill="#E8E8E8"/>
<path d="M261.503 238.854C258.81 237.015 256.074 235.242 254.344 229.813C322.691 229.813 390.336 229.813 457.982 229.813C437.36 239.927 414.942 242.444 392.613 245.356C390.621 245.619 387.512 245.29 386.549 244.021C379.324 234.388 370.984 239.051 362.906 241.875C357.761 243.67 352.814 246.013 347.844 248.267C331.688 255.579 316.451 256.28 302.047 243.78C295.567 238.154 287.926 235.023 278.863 238.898C273.303 241.262 267.348 238.351 261.547 238.898L261.503 238.854Z" fill="#E8E8E8"/>
<path d="M221.967 234.366C221.638 237.935 219.164 240.146 216.866 242.444C189.173 270.137 161.48 297.808 133.765 325.458C131.466 327.756 129.299 330.274 125.752 330.69C134.509 309.148 149.505 291.963 164.61 274.822C167.281 271.779 170.871 271.21 174.571 271.648C183.459 272.721 188.385 268.079 190.552 260.264C192.588 252.93 197.448 246.626 198.148 238.854C206.073 237.343 213.998 235.833 221.923 234.322H221.945L221.967 234.366Z" fill="#E8E8E8"/>
<path d="M220.084 197.369C221.835 205.316 223.586 213.263 225.338 221.187L223.148 222.851C215.443 215.189 207.846 207.417 200.009 199.909C196.222 196.275 193.354 191.174 187.246 190.648C186.414 189.816 185.582 188.963 184.728 188.131C185.079 182.636 181.094 179.659 177.789 176.353C164.938 163.459 152.022 150.63 139.215 137.692C136.216 134.671 132.21 132.175 132.298 127.075C152.394 135.35 168.266 149.623 184.291 163.7C187.399 166.414 187.749 169.983 187.355 173.638C186.392 182.461 191.055 187.496 198.805 189.641C206.139 191.677 212.268 196.8 220.084 197.347V197.369Z" fill="#E8E8E8"/>
<path d="M261.372 219.064C254.935 221.275 244.427 225.456 242.435 221.647C239.195 215.452 248.784 211.183 253.25 206.607C276.061 183.315 299.222 160.35 322.362 137.342C325.624 134.102 328.273 129.811 333.549 129.286C325.12 150.652 309.73 167.158 295.129 184.212C292.721 187.036 289.327 187.146 286.066 186.774C276.718 185.679 272.077 190.583 269.296 198.814C266.976 205.666 264.042 212.321 261.372 219.064Z" fill="#E8E8E8"/>
<path d="M132.298 127.075C132.21 132.154 136.217 134.649 139.216 137.692C152.022 150.63 164.939 163.459 177.789 176.353C181.095 179.681 185.057 182.658 184.729 188.131C169.974 189.97 160.998 181.738 152.898 170.858C142.762 157.242 132.342 143.866 124.877 128.498C123.169 124.973 123.41 125.126 127.81 124.907C128.905 124.907 128.905 124.907 132.342 127.119L132.298 127.075Z" fill="white"/>
<path d="M271.661 274.209C277.112 274.253 279.673 278.675 283.044 281.806C301.039 298.553 316.67 317.752 336.176 332.945C338.321 335.55 337.927 337.148 334.512 335.615C312.095 325.523 292.786 310.834 275.098 294.021C269.493 288.68 273.806 280.667 271.661 274.209Z" fill="#E8E8E8"/>
<path d="M239.721 260.746C237.926 252.712 236.13 244.677 234.313 236.621C246.354 248.53 260.08 258.338 269.734 272.151C259.73 268.342 249.725 264.533 239.721 260.724V260.746Z" fill="#E8E8E8"/>
<path d="M322.559 260.417C325.361 258.644 328.251 257.572 331.995 259.17C330.484 267.817 326.281 275.26 322.362 282.835C318.465 290.409 315.007 291.066 311.788 282.441C316.692 275.72 320.392 268.452 322.537 260.396L322.559 260.417Z" fill="white"/>
<path d="M175.928 147.149C168.726 144.369 168.529 141.392 175.403 137.648C183.328 133.336 191.318 129.264 200.841 127.184C201.782 131.147 200.009 134.299 199.133 137.561C190.574 138.765 183.612 143.8 175.928 147.128V147.149Z" fill="white"/>
<path d="M261.459 137.889C259.489 134.802 258.854 131.497 259.204 127.25C269.012 129.242 277.134 133.423 285.146 137.933C293.158 142.465 289.437 145.026 283.701 147.368C276.499 143.69 269.822 138.809 261.437 137.889H261.459Z" fill="white"/>
<path d="M136.698 198.77C134.006 199.12 131.116 202.032 128.795 199.668C126.803 197.632 129.124 194.786 130.065 192.597C132.626 186.576 135.538 180.731 138.428 174.864C141.799 168.034 145.017 167.706 147.885 175.215C144.163 183.052 140.442 190.911 136.72 198.748L136.698 198.77Z" fill="white"/>
<path d="M311.394 177.075C311.635 173.463 313.758 170.333 316.758 169.742C319.866 169.129 320.742 173.244 322.077 175.543C326.39 183.008 330.44 190.626 331.929 199.646C328.47 201.463 325.711 199.142 322.778 198.617C319.976 190.911 318.224 182.658 311.394 177.075Z" fill="white"/>
<path d="M148.082 282.966C145.455 289.621 142.609 291.263 138.515 283.819C134.181 275.938 129.934 268.101 128.16 258.972C132.342 257.309 135.494 258.95 138.625 260.68C139.369 269.13 144.426 275.741 148.104 282.944L148.082 282.966Z" fill="white"/>
<path d="M283.329 310.856C291.823 313.964 291.451 317.445 283.833 321.364C276.192 325.283 268.64 329.442 259.905 331.018C258.154 327.45 259.423 324.604 261.153 321.802C269.296 319.678 276.718 316.066 283.329 310.856Z" fill="white"/>
<path d="M199.462 322.043C199.943 324.714 202.417 327.866 200.491 329.946C198.279 332.332 195.127 329.858 192.609 328.807C187.355 326.596 182.08 324.341 177.088 321.627C174.483 320.226 170.083 319.241 170.477 315.869C170.805 313.045 174.067 310.747 177.657 310.484C183.284 317.424 191.581 319.328 199.44 322.043H199.462Z" fill="white"/>
<path d="M136.698 198.77C140.42 190.933 144.141 183.074 147.863 175.237C151.081 178.805 155.547 181.344 152.438 187.846C149.089 194.873 145.63 200.368 136.698 198.77Z" fill="#E8E8E8"/>
<path d="M199.462 322.042C191.581 319.328 183.284 317.423 177.68 310.484C180.525 305.93 183.7 304.376 189.26 307.047C195.915 310.243 201.41 313.373 199.484 322.042H199.462Z" fill="#E8E8E8"/>
<path d="M311.394 177.075C318.247 182.636 319.976 190.911 322.778 198.617C313.408 200.762 310.803 193.932 307.585 187.496C305.024 182.373 307.454 179.571 311.394 177.075Z" fill="#E8E8E8"/>
<path d="M175.928 147.15C183.59 143.8 190.574 138.787 199.133 137.583C201.585 146.252 194.864 147.981 189.37 151.221C182.933 155.009 179.65 150.981 175.95 147.15H175.928Z" fill="#E8E8E8"/>
<path d="M283.329 310.856C276.696 316.066 269.296 319.678 261.153 321.802C259.007 313.264 264.436 310.265 270.938 307.003C277.002 303.96 280.111 306.697 283.351 310.856H283.329Z" fill="#E8E8E8"/>
<path d="M322.559 260.417C320.414 268.474 316.692 275.764 311.81 282.462C307.738 279.004 305.111 275.676 308.176 269.59C311.372 263.241 314.547 258.469 322.581 260.396L322.559 260.417Z" fill="#E8E8E8"/>
<path d="M261.459 137.889C269.844 138.787 276.521 143.691 283.723 147.369C280.089 151.703 276.543 154.724 270.26 151.003C264.94 147.85 258.876 146.011 261.459 137.889Z" fill="#E8E8E8"/>
<path d="M148.082 282.966C144.404 275.763 139.347 269.152 138.603 260.702C146.747 258.031 148.695 264.029 151.847 269.437C155.569 275.807 152.504 279.354 148.082 282.966Z" fill="#E8E8E8"/>
<path d="M269.494 271.889C270.282 272.721 271.092 273.552 271.88 274.362C271.092 273.531 270.282 272.699 269.494 271.889Z" fill="#E8E8E8"/>
<path d="M221.945 234.344C222.47 234.082 222.995 233.819 223.521 233.556C222.995 233.819 222.492 234.104 221.966 234.366L221.945 234.344Z" fill="#E8E8E8"/>
<path fill-rule="evenodd" clip-rule="evenodd" d="M776.487 179.145C773.834 182.969 768.439 195.489 764.496 206.967C760.553 218.445 756.336 227.833 755.125 227.833C753.913 227.833 753.225 229.257 753.595 230.995C753.964 232.735 750.962 243.578 746.92 255.091C741.07 271.769 738.384 276.324 733.715 277.495C723.499 280.06 727.374 283.477 740.498 283.477C752.042 283.477 756.551 280.821 750.919 277.341C749.697 276.585 751.151 269.182 754.154 260.891C759.589 245.882 763.262 239.513 763.262 245.098C763.262 246.906 767.2 247.878 773.541 247.627C781.832 247.304 785.246 248.654 791.187 254.603C800.146 263.572 804.127 278.419 797.574 278.419C795.232 278.419 794.018 279.557 794.878 280.948C796.681 283.867 836.611 284.448 836.611 281.557C836.611 280.5 834.539 278.34 832.005 276.759C829.19 275.002 820.115 254.145 808.634 223.038C788.549 168.62 786.101 165.282 776.487 179.145ZM1572.65 174.698C1570.57 175.983 1562.61 177.822 1554.95 178.781C1542.86 180.293 1541.77 180.86 1546.7 183.065C1552.22 185.531 1552.39 186.702 1552.39 221.978C1552.39 261.283 1554.81 271.977 1565.34 279.352C1577.2 287.666 1604.46 281.274 1609.14 269.083C1610.47 265.623 1611.92 266.324 1617.64 273.17C1623.14 279.762 1626.96 281.707 1636.52 282.784C1648.51 284.135 1653.65 280.354 1643.45 277.685C1638.63 276.426 1638.39 274.235 1638.39 230.985C1638.39 186.427 1638.49 185.559 1644.08 182.863C1648.63 180.67 1645.05 180.086 1626.23 179.949C1611.13 179.838 1603.24 180.685 1604.24 182.306C1605.1 183.697 1607.45 184.836 1609.45 184.836C1612.41 184.836 1613.1 190.294 1613.1 214.003C1613.1 245.738 1610.15 257.18 1600.15 264.176C1592.94 269.23 1590.17 269.321 1583.86 264.718C1579.41 261.473 1578.83 256.938 1577.69 216.747C1576.59 178.247 1575.92 172.67 1572.65 174.698ZM1433.52 178.644C1422.17 181.277 1420.66 182.2 1425.3 183.649C1430.92 185.405 1430.99 185.954 1430.99 230.894C1430.99 274.235 1430.75 276.426 1425.93 277.685C1414.42 280.698 1422.24 283.477 1442.22 283.477C1463.35 283.477 1472.24 280.434 1460.06 277.377C1454.11 275.882 1453.75 274.822 1453.75 258.528C1453.75 236.926 1457.27 232.892 1476.08 232.892H1489.16V254.628C1489.16 274.235 1488.67 276.491 1484.1 277.685C1472.59 280.698 1480.41 283.477 1500.4 283.477C1520.67 283.477 1530.38 280.528 1519.49 277.678C1514.68 276.421 1514.46 274.139 1514.46 225.542C1514.46 186.482 1513.72 174.756 1511.29 174.88C1509.56 174.971 1501.3 176.497 1492.96 178.272C1480.77 180.865 1478.9 181.864 1483.47 183.338C1488.43 184.939 1489.16 186.91 1489.16 198.585V211.992L1478.76 213.386C1472.16 214.271 1465.62 217.392 1460.84 221.94L1453.31 229.098L1454.16 201.906C1455.12 171.322 1456.82 173.236 1433.52 178.644ZM501.454 181.881C502.165 183.733 502.764 186.578 502.785 188.205C502.901 196.956 507.001 198.074 519.187 192.684C525.801 189.758 532.205 187.365 533.419 187.365C534.633 187.365 535.627 207.389 535.627 231.865C535.627 274.235 535.384 276.426 530.569 277.685C519.055 280.698 526.876 283.477 546.86 283.477C567.132 283.477 576.844 280.528 565.951 277.678C561.168 276.428 560.92 274.152 560.92 231.693V187.023L566.611 188.779C569.74 189.745 575.375 192.097 579.131 194.009C588.552 198.8 590.49 198.413 592.25 191.394C593.092 188.045 594.365 183.776 595.083 181.909C596.145 179.14 587.5 178.512 548.276 178.512C509.249 178.512 500.407 179.15 501.454 181.881ZM1306.09 182.306C1306.98 184.393 1308.26 188.66 1308.94 191.791C1310.44 198.731 1311.26 198.764 1325.12 192.479C1343.41 184.178 1342.66 182.458 1341.89 230.924C1341.22 273.203 1341.03 274.564 1335.52 277.308C1326.52 281.795 1331.62 283.477 1354.27 283.477C1374.02 283.477 1381.75 280.682 1370.29 277.685C1365.47 276.426 1365.23 274.235 1365.23 231.865C1365.23 207.389 1366.22 187.365 1367.44 187.365C1368.65 187.365 1375.03 189.747 1381.62 192.661C1394.61 198.408 1396.75 197.608 1399.17 186.1L1400.76 178.512H1352.61C1310.79 178.512 1304.68 179.011 1306.09 182.306ZM619.784 183.783L626.8 187.587L626.107 231.035C625.437 273.198 625.249 274.564 619.741 277.308C610.886 281.717 615.752 283.477 636.798 283.477C657.837 283.477 662.718 281.714 653.856 277.318C645.39 273.12 644.419 253.121 652.32 245.758C664.299 234.596 677.266 242.726 677.266 261.392C677.266 274.185 686.177 283.477 698.444 283.477C709.697 283.477 715.205 281.31 715.205 276.883C715.205 272.518 712.163 272.356 708.017 276.501C703.224 281.294 700.113 274.458 700.068 259.024C700.02 242.316 698.487 238.59 689.817 234.106L682.745 230.448L691.387 221.806C701.021 212.172 702.627 202.315 696.082 192.972C688.39 181.988 679.76 179.769 645.145 179.878C614.874 179.972 613.225 180.227 619.784 183.783ZM858.742 182.863C864.329 185.559 864.432 186.427 864.432 230.985C864.432 274.235 864.195 276.426 859.374 277.685C846.7 281.001 856.726 283.477 882.77 283.462C918.437 283.444 928.608 280.677 941.869 267.378C967.462 241.711 959.151 194.664 926.868 182.468C916.943 178.717 850.941 179.102 858.742 182.863ZM976.985 182.306C977.845 183.697 980.187 184.836 982.193 184.836C985.233 184.836 985.837 192.439 985.837 230.6C985.837 274.235 985.602 276.426 980.779 277.685C966.87 281.322 979.593 283.477 1014.99 283.477C1058.82 283.477 1055.78 284.792 1060.33 263.875C1062.24 255.068 1057.81 251.955 1054.93 260.081C1051.07 270.957 1046.28 273.36 1028.44 273.36H1011.13V256.161C1011.13 236.456 1013.43 232.892 1026.18 232.892C1033.42 232.892 1036.53 231.167 1042.25 224.009C1048.25 216.482 1048.72 214.893 1045.3 213.581C1038.45 210.953 1023.35 214.701 1017.09 220.587L1011.13 226.187V206.775C1011.13 188.329 1011.41 187.365 1016.82 187.378C1019.95 187.385 1027.06 190.195 1032.63 193.622C1046.21 201.987 1050.47 201.63 1054.35 191.791C1056.13 187.269 1058.05 182.719 1058.6 181.674C1059.15 180.629 1040.67 179.777 1017.51 179.777C990.097 179.777 975.966 180.66 976.985 182.306ZM1086.38 182.863C1091.96 185.559 1092.07 186.427 1092.07 230.985C1092.07 274.235 1091.83 276.426 1087.01 277.685C1077.23 280.242 1082.09 283.477 1095.71 283.477C1109.67 283.477 1116.41 280.083 1107.21 277.678C1102.47 276.438 1102.18 274.162 1102.18 237.682C1102.18 215.253 1103.12 200.009 1104.41 201.402C1105.64 202.725 1119.95 221.844 1136.22 243.892L1165.8 283.975L1170.88 273.712C1175.57 264.229 1175.65 263.008 1171.95 257.722C1168.8 253.227 1167.95 245.09 1167.95 219.762V187.527L1174.9 183.753C1181.63 180.106 1181.27 179.979 1164.15 179.979C1147.03 179.979 1146.68 180.106 1153.4 183.753C1160.33 187.512 1160.36 187.628 1160.28 214.635C1160.2 239.21 1159.85 241.271 1156.44 236.686C1154.37 233.903 1144.13 219.962 1133.69 205.702L1114.69 179.777L1097.69 179.949C1083.58 180.091 1081.65 180.586 1086.38 182.863ZM1204.05 183.783L1211.06 187.587L1210.37 231.035C1209.7 273.198 1209.51 274.564 1204 277.308C1200.88 278.864 1199.08 280.887 1200 281.805C1200.92 282.726 1218.61 283.477 1239.32 283.477H1276.96L1280.32 275.257C1286.61 259.892 1287.37 255.653 1283.83 255.711C1282 255.741 1278.79 259.439 1276.7 263.931C1272.96 271.989 1272.65 272.106 1253.31 272.834L1233.71 273.573V257.206C1233.71 237.892 1237.24 232.907 1250.96 232.861C1258.78 232.834 1261.17 231.432 1265.95 224.044C1269.09 219.211 1271.65 214.524 1271.65 213.629C1271.65 210.009 1247.86 214.99 1241.03 220.041L1233.71 225.456V206.41V187.365L1240.66 187.378C1244.49 187.385 1252.17 190.195 1257.73 193.622C1271.55 202.131 1274.76 201.584 1279.68 189.869L1283.91 179.777L1240.47 179.878C1200.35 179.972 1197.57 180.27 1204.05 183.783ZM1670.69 182.888C1678.57 186.687 1679.15 190.61 1678.32 235.35C1677.62 273.026 1677.38 274.587 1671.92 277.308C1668.8 278.864 1666.99 280.887 1667.91 281.805C1670.68 284.575 1682.25 283.52 1688.78 279.903C1693.92 277.058 1696.25 277.073 1703.24 279.994C1720.85 287.355 1747.22 282.597 1755.67 270.535C1760.31 263.908 1761.13 247.698 1757.19 240.34C1755.76 237.662 1751.08 233.661 1746.8 231.445L1739.01 227.418L1745.61 220.531C1756.99 208.656 1753.08 191.87 1737 183.556C1731.58 180.748 1721.37 179.82 1697.32 179.949C1671.97 180.083 1666.19 180.72 1670.69 182.888ZM671.057 193.574C677.712 200.226 678.883 207.442 674.606 215.432C671.859 220.564 652.877 235.421 649.065 235.421C647.881 235.421 646.915 225.802 646.915 214.049C646.915 196.361 647.679 192.231 651.341 190.096C658.517 185.916 664.448 186.963 671.057 193.574ZM915.175 189.978C921.187 193.195 928.916 208.123 931.261 221.042C933.694 234.442 928.547 256.748 920.931 265.798C915.309 272.48 912.974 273.36 900.882 273.36H887.196V230.362V187.365H898.745C905.096 187.365 912.489 188.541 915.175 189.978ZM1723.23 193.574C1734.28 204.622 1730.06 217.532 1711.57 229.204C1706.15 232.624 1701.13 235.421 1700.41 235.421C1699.68 235.421 1699.09 225.802 1699.09 214.049C1699.09 196.361 1699.86 192.231 1703.52 190.096C1710.69 185.916 1716.62 186.963 1723.23 193.574ZM783.23 223.627L788.648 238.39L781.938 233.112C778.245 230.208 773.159 227.833 770.629 227.833C766.246 227.833 766.226 227.31 770.24 216.479C772.554 210.237 775.205 205.968 776.131 206.995C777.056 208.024 780.251 215.508 783.23 223.627ZM1733.09 243.573C1745.36 261.086 1727.2 279.114 1705.58 270.894C1700.42 268.934 1699.1 266.726 1699.13 260.145C1699.18 250.576 1700.56 248.103 1709.14 242.23C1717.96 236.192 1728.33 236.774 1733.09 243.573Z" fill="white"/>
</svg>
