<svg width="2117" height="706" viewBox="0 0 2117 706" fill="none" xmlns="http://www.w3.org/2000/svg">
<rect width="2117" height="705.667" fill="#002E4A"/>
<path d="M440.372 345.064C448.275 345.502 456.134 344.319 464.124 346.749C470.867 348.785 476.887 343.969 481.769 339.81C495.583 328.054 510.184 328.776 525.618 335.563C531.945 338.343 538.315 341.036 544.795 343.422C551.954 346.049 559.331 349.398 564.958 340.445C566.205 338.474 568.745 338.321 570.934 338.606C593.286 341.561 615.593 344.713 636.566 353.711C636.894 353.842 637.397 354.127 637.376 354.324C637.376 354.827 637.091 355.331 636.938 355.834C569.292 355.834 501.669 355.834 433.301 355.834C435.03 361.264 437.788 363.059 440.459 364.876C442.977 371.246 445.976 377.485 447.881 384.031C450.683 393.707 455.849 399.246 466.62 397.604C470.123 397.078 472.925 398.545 475.245 401.172C490.766 418.905 505.806 436.965 515.176 458.945C495.67 443.752 480.04 424.553 462.045 407.805C458.673 404.675 456.112 400.253 450.661 400.209L450.88 400.384C450.092 399.552 449.282 398.72 448.494 397.91C448.494 397.91 448.734 398.195 448.734 398.173C439.08 384.359 425.354 374.552 413.313 362.643C415.109 370.677 416.904 378.711 418.721 386.767C419.268 394.67 419.925 402.311 417.473 410.323C415.459 416.891 420.297 422.955 424.456 427.88C436.037 441.606 435.621 456.164 428.878 471.598C425.704 478.888 422.705 486.287 419.925 493.731C417.714 499.685 416.247 505.662 422.924 510.193C426.602 512.689 425.573 516.607 425.201 520.176C422.946 541.148 418.808 561.683 411.212 581.407C408.629 576.635 409.461 571.446 409.461 566.389C409.417 507.391 409.461 448.393 409.329 389.395C409.329 385.739 411.037 381.535 407.162 377.945C404.272 380.988 401.558 383.856 398.821 386.702C393.129 389.022 387.547 391.737 381.702 393.576C371.763 396.706 364.451 401.282 366.662 413.519C367.209 416.496 365.721 419.124 363.378 421.203C345.427 437.097 327.016 452.333 304.555 461.681C302.432 459.974 303.526 458.879 304.774 456.624L304.73 456.69C308.277 456.274 310.444 453.734 312.743 451.458C340.458 423.808 368.151 396.137 395.844 368.444C398.142 366.145 400.638 363.934 400.945 360.366C401.47 360.103 401.974 359.819 402.499 359.556C401.974 359.819 401.448 360.081 400.923 360.344C392.998 361.855 385.073 363.365 377.148 364.876C369.574 365.576 362.152 366.342 354.556 363.847C348.01 361.701 342.275 365.708 337.721 369.626C322.682 382.564 306.876 381.951 290.085 373.917C284.196 371.115 278.022 368.904 271.915 366.627C265.26 364.131 258.648 362.052 253.504 369.67C251.906 372.034 249.125 371.947 246.52 371.597C224.234 368.729 201.905 366.08 181.305 356.141C187.478 355.966 193.63 355.659 199.781 355.659C257.838 355.616 315.873 355.659 373.93 355.55C377.302 355.55 382.359 357.367 383.584 353.229C384.635 349.683 380.104 347.428 377.389 345.129C373.668 335.628 369.946 326.127 366.224 316.626C372.332 317.152 375.178 322.253 378.987 325.887C386.824 333.395 394.443 341.167 402.127 348.829L404.316 347.165C402.565 339.219 400.813 331.272 399.062 323.347C398.821 315.794 398.077 308.373 400.551 300.777C402.63 294.384 398.449 288.539 394.487 284.008C380.957 268.552 382.862 252.352 390.743 235.386C393.633 229.169 396.194 222.754 398.449 216.253C400.485 210.364 402.127 204.278 394.815 200.184C392.407 198.827 392.057 196.09 392.385 193.42C395.121 171.09 398.865 149.001 407.446 128.007C407.578 127.679 407.665 127.263 407.906 127.044C409.548 125.555 409.439 127.306 409.833 128.116C409.833 195.674 409.833 263.232 409.833 331.447C414.539 329.521 416.422 326.456 418.502 323.588C426.93 320.457 435.424 317.458 443.809 314.153C449.019 312.095 452.149 308.154 451.252 302.309C450.113 294.91 453.529 290.115 458.848 285.606C473.494 273.171 488.621 261.415 505.719 252.505C508.28 251.17 510.819 246.967 514.563 250.842C514.563 252.002 514.782 253.096 512.505 255.351L512.549 255.286C507.273 255.789 504.624 260.102 501.362 263.342C478.244 286.328 455.083 309.293 432.25 332.607C427.762 337.183 418.173 341.452 421.435 347.647C423.427 351.434 433.935 347.253 440.372 345.064Z" fill="#E8C39B"/>
<path d="M377.389 345.151C380.104 347.45 384.635 349.705 383.585 353.251C382.359 357.389 377.302 355.572 373.93 355.572C315.873 355.681 257.838 355.637 199.781 355.681C193.63 355.681 187.456 355.988 181.305 356.163C177.299 353.623 181.633 353.667 182.377 353.361C202.781 345.217 224.278 341.846 245.864 338.868C248.381 338.518 251.358 338.212 252.913 340.598C258.583 349.289 265.873 346.465 273.119 343.706C281.591 340.488 289.91 336.898 298.404 333.724C310.729 329.127 323.273 328.645 333.102 338.321C346.631 351.588 362.525 343.728 377.389 345.151Z" fill="#B59777"/>
<path d="M398.821 386.702C401.536 383.834 404.272 380.988 407.162 377.945C411.037 381.536 409.329 385.739 409.329 389.395C409.461 448.393 409.395 507.391 409.461 566.39C409.461 571.425 408.629 576.635 411.212 581.407C407.687 582.852 407.534 582.918 406.615 580.422C400.573 564.31 396.741 547.65 394.508 530.64C393.392 522.037 388.992 512.689 399.412 505.968C401.952 504.326 400.069 500.561 399.478 497.715C397.42 487.601 392.297 478.669 388.576 469.19C382.993 454.982 382.249 441.059 393.304 429.281C405.695 416.081 397.114 400.888 398.843 386.702H398.821Z" fill="#B59777"/>
<path d="M418.502 323.588C416.422 326.456 414.54 329.521 409.833 331.447C409.833 263.233 409.833 195.675 409.833 128.117C419.75 148.804 422.574 171.178 425.201 193.573C425.398 195.259 425.201 197.864 424.106 198.674C413.598 206.577 419.203 215.487 422.289 224.156C424.128 229.3 426.405 234.292 428.638 239.261C435.402 254.388 435.731 268.662 424.435 282.191C418.13 289.722 414.934 298.04 418.874 308.461C420.538 312.817 418.721 318.487 418.48 323.566L418.502 323.588Z" fill="#B59777"/>
<path d="M440.503 364.854C437.81 363.015 435.074 361.242 433.344 355.813C501.691 355.813 569.336 355.813 636.982 355.813C616.36 365.927 593.942 368.444 571.613 371.356C569.621 371.619 566.512 371.29 565.549 370.021C558.324 360.388 549.984 365.051 541.906 367.875C536.761 369.67 531.814 372.013 526.844 374.267C510.688 381.579 495.451 382.28 481.047 369.78C474.567 364.154 466.926 361.023 457.863 364.898C452.303 367.262 446.348 364.351 440.547 364.898L440.503 364.854Z" fill="#B59777"/>
<path d="M400.967 360.366C400.638 363.934 398.164 366.146 395.866 368.444C368.173 396.137 340.48 423.808 312.765 451.458C310.466 453.756 308.299 456.274 304.752 456.69C313.509 435.148 328.505 417.963 343.61 400.822C346.281 397.779 349.871 397.21 353.571 397.648C362.459 398.72 367.385 394.079 369.552 386.264C371.588 378.93 376.448 372.625 377.148 364.854C385.073 363.343 392.998 361.833 400.923 360.322H400.945L400.967 360.366Z" fill="#B59777"/>
<path d="M399.084 323.369C400.835 331.316 402.586 339.263 404.338 347.187L402.148 348.851C394.443 341.189 386.846 333.417 379.009 325.909C375.222 322.275 372.354 317.174 366.246 316.648C365.414 315.816 364.582 314.963 363.728 314.131C364.079 308.636 360.094 305.659 356.789 302.353C343.938 289.459 331.022 276.63 318.215 263.692C315.216 260.671 311.21 258.175 311.298 253.075C331.394 261.35 347.266 275.623 363.291 289.7C366.399 292.414 366.749 295.983 366.355 299.638C365.392 308.461 370.055 313.496 377.805 315.641C385.139 317.677 391.268 322.8 399.084 323.347V323.369Z" fill="#B59777"/>
<path d="M440.372 345.064C433.935 347.275 423.427 351.456 421.435 347.647C418.195 341.452 427.784 337.183 432.25 332.607C455.061 309.315 478.222 286.35 501.362 263.342C504.624 260.102 507.273 255.811 512.549 255.286C504.12 276.652 488.73 293.158 474.129 310.212C471.721 313.036 468.327 313.146 465.066 312.773C455.718 311.679 451.077 316.583 448.296 324.814C445.976 331.666 443.042 338.321 440.372 345.064Z" fill="#B59777"/>
<path d="M311.298 253.075C311.21 258.154 315.217 260.649 318.216 263.692C331.022 276.63 343.939 289.459 356.789 302.353C360.095 305.681 364.057 308.658 363.729 314.131C348.974 315.97 339.998 307.738 331.898 296.858C321.762 283.242 311.342 269.866 303.877 254.498C302.169 250.973 302.41 251.126 306.81 250.907C307.905 250.907 307.905 250.907 311.342 253.119L311.298 253.075Z" fill="#E8C39B"/>
<path d="M450.661 400.209C456.112 400.253 458.673 404.675 462.044 407.806C480.039 424.553 495.67 443.752 515.176 458.945C517.321 461.55 516.927 463.148 513.512 461.615C491.095 451.523 471.786 436.834 454.098 420.021C448.493 414.68 452.806 406.667 450.661 400.209Z" fill="#B59777"/>
<path d="M418.721 386.746C416.926 378.712 415.13 370.677 413.313 362.621C425.354 374.53 439.08 384.338 448.734 398.151C438.73 394.342 428.725 390.533 418.721 386.724V386.746Z" fill="#B59777"/>
<path d="M501.559 386.417C504.361 384.644 507.251 383.572 510.995 385.17C509.484 393.817 505.281 401.26 501.362 408.835C497.465 416.409 494.007 417.066 490.788 408.441C495.692 401.72 499.392 394.452 501.537 386.396L501.559 386.417Z" fill="#E8C39B"/>
<path d="M354.928 273.15C347.726 270.369 347.529 267.392 354.403 263.648C362.328 259.336 370.318 255.264 379.841 253.184C380.782 257.147 379.009 260.299 378.133 263.561C369.574 264.765 362.612 269.8 354.928 273.128V273.15Z" fill="#E8C39B"/>
<path d="M440.459 263.889C438.489 260.802 437.854 257.497 438.204 253.25C448.012 255.242 456.134 259.423 464.146 263.933C472.158 268.465 468.437 271.026 462.701 273.368C455.499 269.69 448.822 264.809 440.437 263.889H440.459Z" fill="#E8C39B"/>
<path d="M315.698 324.77C313.006 325.12 310.116 328.032 307.795 325.668C305.803 323.632 308.124 320.786 309.065 318.597C311.626 312.576 314.538 306.731 317.428 300.864C320.799 294.034 324.017 293.706 326.885 301.215C323.163 309.052 319.442 316.911 315.72 324.748L315.698 324.77Z" fill="#E8C39B"/>
<path d="M490.394 303.075C490.635 299.463 492.758 296.333 495.758 295.742C498.866 295.129 499.742 299.244 501.077 301.543C505.39 309.008 509.44 316.626 510.929 325.646C507.47 327.463 504.711 325.142 501.778 324.617C498.976 316.911 497.224 308.658 490.394 303.075Z" fill="#E8C39B"/>
<path d="M327.082 408.966C324.455 415.621 321.609 417.263 317.515 409.819C313.181 401.938 308.934 394.101 307.16 384.972C311.342 383.309 314.494 384.95 317.625 386.68C318.369 395.13 323.426 401.741 327.104 408.944L327.082 408.966Z" fill="#E8C39B"/>
<path d="M462.329 436.856C470.823 439.964 470.451 443.445 462.833 447.364C455.192 451.282 447.64 455.442 438.905 457.018C437.154 453.45 438.423 450.604 440.153 447.802C448.296 445.678 455.718 442.066 462.329 436.856Z" fill="#E8C39B"/>
<path d="M378.462 448.043C378.943 450.713 381.417 453.866 379.491 455.946C377.279 458.332 374.127 455.858 371.609 454.807C366.355 452.596 361.08 450.341 356.088 447.627C353.483 446.226 349.083 445.241 349.477 441.869C349.805 439.045 353.067 436.747 356.657 436.484C362.284 443.424 370.581 445.328 378.44 448.043H378.462Z" fill="#E8C39B"/>
<path d="M315.698 324.77C319.42 316.933 323.141 309.074 326.863 301.237C330.081 304.805 334.547 307.344 331.438 313.846C328.089 320.873 324.63 326.368 315.698 324.77Z" fill="#B59777"/>
<path d="M378.462 448.043C370.581 445.328 362.284 443.423 356.68 436.484C359.525 431.93 362.7 430.376 368.26 433.047C374.915 436.243 380.41 439.373 378.484 448.043H378.462Z" fill="#B59777"/>
<path d="M490.394 303.075C497.247 308.636 498.976 316.911 501.778 324.617C492.408 326.762 489.803 319.932 486.585 313.496C484.024 308.373 486.454 305.571 490.394 303.075Z" fill="#B59777"/>
<path d="M354.928 273.15C362.59 269.8 369.574 264.787 378.133 263.583C380.585 272.252 373.864 273.981 368.37 277.221C361.933 281.009 358.65 276.981 354.95 273.15H354.928Z" fill="#B59777"/>
<path d="M462.329 436.856C455.696 442.066 448.296 445.678 440.153 447.802C438.007 439.264 443.436 436.265 449.938 433.003C456.002 429.96 459.111 432.697 462.351 436.856H462.329Z" fill="#B59777"/>
<path d="M501.559 386.417C499.414 394.474 495.692 401.764 490.81 408.462C486.738 405.004 484.111 401.676 487.176 395.59C490.372 389.241 493.547 384.469 501.581 386.396L501.559 386.417Z" fill="#B59777"/>
<path d="M440.459 263.889C448.844 264.787 455.521 269.691 462.723 273.369C459.089 277.703 455.543 280.724 449.26 277.003C443.94 273.85 437.876 272.011 440.459 263.889Z" fill="#B59777"/>
<path d="M327.082 408.966C323.404 401.763 318.347 395.152 317.603 386.702C325.747 384.031 327.695 390.029 330.847 395.437C334.569 401.807 331.504 405.354 327.082 408.966Z" fill="#B59777"/>
<path d="M448.494 397.889C449.282 398.721 450.092 399.552 450.88 400.362C450.092 399.531 449.282 398.699 448.494 397.889Z" fill="#B59777"/>
<path d="M400.945 360.344C401.47 360.082 401.995 359.819 402.521 359.556C401.995 359.819 401.492 360.104 400.966 360.366L400.945 360.344Z" fill="#B59777"/>
<path fill-rule="evenodd" clip-rule="evenodd" d="M955.487 305.145C952.834 308.969 947.439 321.489 943.496 332.967C939.553 344.445 935.337 353.833 934.125 353.833C932.914 353.833 932.226 355.257 932.595 356.995C932.964 358.735 929.962 369.578 925.92 381.091C920.07 397.769 917.384 402.324 912.715 403.495C902.499 406.06 906.374 409.477 919.498 409.477C931.042 409.477 935.552 406.821 929.919 403.341C928.697 402.585 930.152 395.182 933.154 386.891C938.589 371.882 942.262 365.513 942.262 371.098C942.262 372.906 946.2 373.878 952.541 373.627C960.832 373.304 964.246 374.654 970.187 380.603C979.146 389.572 983.127 404.419 976.574 404.419C974.232 404.419 973.018 405.557 973.878 406.948C975.681 409.867 1015.61 410.448 1015.61 407.557C1015.61 406.5 1013.54 404.34 1011 402.759C1008.19 401.002 999.115 380.145 987.634 349.038C967.549 294.62 965.101 291.282 955.487 305.145ZM1751.65 300.698C1749.57 301.983 1741.61 303.822 1733.95 304.781C1721.86 306.293 1720.77 306.86 1725.7 309.065C1731.22 311.531 1731.39 312.702 1731.39 347.978C1731.39 387.283 1733.81 397.977 1744.34 405.352C1756.2 413.666 1783.46 407.274 1788.14 395.083C1789.47 391.623 1790.92 392.324 1796.64 399.17C1802.14 405.762 1805.96 407.707 1815.52 408.784C1827.51 410.135 1832.65 406.354 1822.45 403.685C1817.63 402.426 1817.39 400.235 1817.39 356.985C1817.39 312.427 1817.49 311.559 1823.08 308.863C1827.63 306.67 1824.05 306.086 1805.23 305.949C1790.13 305.838 1782.24 306.685 1783.24 308.306C1784.1 309.697 1786.45 310.836 1788.45 310.836C1791.41 310.836 1792.1 316.294 1792.1 340.003C1792.1 371.738 1789.15 383.18 1779.15 390.176C1771.94 395.23 1769.17 395.321 1762.86 390.718C1758.41 387.473 1757.83 382.938 1756.69 342.747C1755.59 304.247 1754.92 298.67 1751.65 300.698ZM1612.52 304.644C1601.17 307.277 1599.66 308.2 1604.3 309.649C1609.92 311.405 1609.99 311.954 1609.99 356.894C1609.99 400.235 1609.75 402.426 1604.93 403.685C1593.42 406.698 1601.24 409.477 1621.22 409.477C1642.35 409.477 1651.24 406.434 1639.06 403.377C1633.11 401.882 1632.75 400.822 1632.75 384.528C1632.75 362.926 1636.27 358.892 1655.08 358.892H1668.16V380.628C1668.16 400.235 1667.67 402.491 1663.1 403.685C1651.59 406.698 1659.41 409.477 1679.4 409.477C1699.67 409.477 1709.38 406.528 1698.49 403.678C1693.68 402.421 1693.46 400.139 1693.46 351.542C1693.46 312.482 1692.72 300.756 1690.29 300.88C1688.56 300.971 1680.3 302.497 1671.96 304.272C1659.77 306.865 1657.9 307.864 1662.47 309.338C1667.43 310.939 1668.16 312.91 1668.16 324.585V337.992L1657.76 339.386C1651.16 340.271 1644.62 343.392 1639.84 347.94L1632.31 355.098L1633.16 327.906C1634.12 297.322 1635.82 299.236 1612.52 304.644ZM680.454 307.881C681.165 309.733 681.765 312.578 681.785 314.205C681.901 322.956 686.001 324.074 698.187 318.684C704.801 315.758 711.205 313.365 712.419 313.365C713.633 313.365 714.627 333.389 714.627 357.865C714.627 400.235 714.385 402.426 709.569 403.685C698.056 406.698 705.876 409.477 725.86 409.477C746.132 409.477 755.844 406.528 744.951 403.678C740.168 402.428 739.92 400.152 739.92 357.693V313.023L745.611 314.779C748.74 315.745 754.375 318.097 758.131 320.009C767.552 324.8 769.49 324.413 771.25 317.394C772.092 314.045 773.365 309.776 774.083 307.909C775.145 305.14 766.5 304.512 727.276 304.512C688.25 304.512 679.407 305.15 680.454 307.881ZM1485.09 308.306C1485.98 310.393 1487.26 314.66 1487.94 317.791C1489.44 324.731 1490.26 324.764 1504.12 318.479C1522.41 310.178 1521.66 308.458 1520.89 356.924C1520.22 399.203 1520.03 400.564 1514.52 403.308C1505.52 407.795 1510.62 409.477 1533.27 409.477C1553.02 409.477 1560.75 406.682 1549.29 403.685C1544.47 402.426 1544.23 400.235 1544.23 357.865C1544.23 333.389 1545.22 313.365 1546.44 313.365C1547.65 313.365 1554.03 315.747 1560.62 318.661C1573.61 324.408 1575.75 323.608 1578.17 312.1L1579.76 304.512H1531.61C1489.79 304.512 1483.68 305.011 1485.09 308.306ZM798.784 309.783L805.8 313.587L805.107 357.035C804.437 399.198 804.25 400.564 798.741 403.308C789.886 407.717 794.752 409.477 815.798 409.477C836.837 409.477 841.718 407.714 832.856 403.318C824.39 399.12 823.419 379.121 831.32 371.758C843.299 360.596 856.267 368.726 856.267 387.392C856.267 400.185 865.177 409.477 877.444 409.477C888.697 409.477 894.206 407.31 894.206 402.883C894.206 398.518 891.163 398.356 887.017 402.501C882.224 407.294 879.113 400.458 879.068 385.024C879.02 368.316 877.487 364.59 868.817 360.106L861.745 356.448L870.387 347.806C880.021 338.172 881.628 328.315 875.082 318.972C867.39 307.988 858.76 305.769 824.145 305.878C793.875 305.972 792.225 306.227 798.784 309.783ZM1037.74 308.863C1043.33 311.559 1043.43 312.427 1043.43 356.985C1043.43 400.235 1043.19 402.426 1038.37 403.685C1025.7 407.001 1035.73 409.477 1061.77 409.462C1097.44 409.444 1107.61 406.677 1120.87 393.378C1146.46 367.711 1138.15 320.664 1105.87 308.468C1095.94 304.717 1029.94 305.102 1037.74 308.863ZM1155.99 308.306C1156.85 309.697 1159.19 310.836 1161.19 310.836C1164.23 310.836 1164.84 318.439 1164.84 356.6C1164.84 400.235 1164.6 402.426 1159.78 403.685C1145.87 407.322 1158.59 409.477 1193.99 409.477C1237.82 409.477 1234.78 410.792 1239.33 389.875C1241.24 381.068 1236.81 377.955 1233.93 386.081C1230.07 396.957 1225.28 399.36 1207.44 399.36H1190.13V382.161C1190.13 362.456 1192.43 358.892 1205.18 358.892C1212.42 358.892 1215.53 357.167 1221.25 350.009C1227.25 342.482 1227.72 340.893 1224.3 339.581C1217.45 336.953 1202.35 340.701 1196.09 346.587L1190.13 352.187V332.775C1190.13 314.329 1190.41 313.365 1195.82 313.378C1198.95 313.385 1206.06 316.195 1211.63 319.622C1225.21 327.987 1229.47 327.63 1233.35 317.791C1235.13 313.269 1237.05 308.719 1237.6 307.674C1238.15 306.629 1219.67 305.777 1196.51 305.777C1169.1 305.777 1154.97 306.66 1155.99 308.306ZM1265.38 308.863C1270.96 311.559 1271.07 312.427 1271.07 356.985C1271.07 400.235 1270.83 402.426 1266.01 403.685C1256.23 406.242 1261.09 409.477 1274.71 409.477C1288.67 409.477 1295.41 406.083 1286.21 403.678C1281.47 402.438 1281.18 400.162 1281.18 363.682C1281.18 341.253 1282.12 326.009 1283.41 327.402C1284.64 328.725 1298.95 347.844 1315.22 369.892L1344.8 409.975L1349.88 399.712C1354.57 390.229 1354.65 389.008 1350.95 383.722C1347.81 379.227 1346.95 371.09 1346.95 345.762V313.527L1353.9 309.753C1360.63 306.106 1360.27 305.979 1343.15 305.979C1326.03 305.979 1325.68 306.106 1332.4 309.753C1339.33 313.512 1339.36 313.628 1339.28 340.635C1339.2 365.21 1338.85 367.271 1335.44 362.686C1333.37 359.903 1323.13 345.962 1312.69 331.702L1293.69 305.777L1276.69 305.949C1262.58 306.091 1260.65 306.586 1265.38 308.863ZM1383.05 309.783L1390.06 313.587L1389.37 357.035C1388.7 399.198 1388.51 400.564 1383 403.308C1379.88 404.864 1378.08 406.887 1379 407.805C1379.92 408.726 1397.61 409.477 1418.32 409.477H1455.96L1459.32 401.257C1465.61 385.892 1466.37 381.653 1462.83 381.711C1461 381.741 1457.79 385.439 1455.7 389.931C1451.96 397.989 1451.65 398.106 1432.31 398.834L1412.71 399.573V383.206C1412.71 363.892 1416.24 358.907 1429.96 358.861C1437.78 358.834 1440.17 357.432 1444.95 350.044C1448.09 345.211 1450.65 340.524 1450.65 339.629C1450.65 336.009 1426.86 340.99 1420.03 346.041L1412.71 351.456V332.41V313.365L1419.66 313.378C1423.49 313.385 1431.17 316.195 1436.73 319.622C1450.55 328.131 1453.76 327.584 1458.68 315.869L1462.91 305.777L1419.47 305.878C1379.35 305.972 1376.57 306.27 1383.05 309.783ZM1849.69 308.888C1857.57 312.687 1858.15 316.61 1857.32 361.35C1856.62 399.026 1856.38 400.587 1850.92 403.308C1847.8 404.864 1845.99 406.887 1846.91 407.805C1849.68 410.575 1861.25 409.52 1867.78 405.903C1872.92 403.058 1875.25 403.073 1882.24 405.994C1899.85 413.355 1926.22 408.597 1934.67 396.535C1939.31 389.908 1940.13 373.698 1936.19 366.34C1934.76 363.662 1930.08 359.661 1925.8 357.445L1918.01 353.418L1924.61 346.531C1935.99 334.656 1932.08 317.87 1916 309.556C1910.58 306.748 1900.37 305.82 1876.32 305.949C1850.97 306.083 1845.19 306.72 1849.69 308.888ZM850.057 319.574C856.712 326.226 857.883 333.442 853.606 341.432C850.859 346.564 831.877 361.421 828.065 361.421C826.881 361.421 825.915 351.802 825.915 340.049C825.915 322.361 826.679 318.231 830.342 316.096C837.517 311.916 843.448 312.963 850.057 319.574ZM1094.17 315.978C1100.19 319.195 1107.92 334.123 1110.26 347.042C1112.69 360.442 1107.55 382.748 1099.93 391.798C1094.31 398.48 1091.97 399.36 1079.88 399.36H1066.2V356.362V313.365H1077.74C1084.1 313.365 1091.49 314.541 1094.17 315.978ZM1902.23 319.574C1913.28 330.622 1909.06 343.532 1890.57 355.204C1885.15 358.624 1880.13 361.421 1879.41 361.421C1878.68 361.421 1878.09 351.802 1878.09 340.049C1878.09 322.361 1878.86 318.231 1882.52 316.096C1889.69 311.916 1895.62 312.963 1902.23 319.574ZM962.23 349.627L967.648 364.39L960.938 359.112C957.245 356.208 952.159 353.833 949.63 353.833C945.246 353.833 945.226 353.31 949.24 342.479C951.554 336.237 954.205 331.968 955.131 332.995C956.056 334.024 959.251 341.508 962.23 349.627ZM1912.09 369.573C1924.36 387.086 1906.2 405.114 1884.58 396.894C1879.43 394.934 1878.1 392.726 1878.13 386.145C1878.18 376.576 1879.56 374.103 1888.14 368.23C1896.96 362.192 1907.33 362.774 1912.09 369.573Z" fill="#E8C39B"/>
</svg>
